<?xml version="1.0" standalone="no"?>
<!DOCTYPE svg PUBLIC "-//W3C//DTD SVG 20010904//EN"
 "http://www.w3.org/TR/2001/REC-SVG-20010904/DTD/svg10.dtd">
<svg version="1.0" xmlns="http://www.w3.org/2000/svg"
 width="512.000000pt" height="512.000000pt" viewBox="0 0 512.000000 512.000000"
 preserveAspectRatio="xMidYMid meet">
<metadata>
Created by potrace 1.11, written by Peter Selinger 2001-2013
</metadata>
<g transform="translate(0.000000,512.000000) scale(0.100000,-0.100000)"
fill="#000000" stroke="none">
<path d="M2455 5100 c-212 -56 -367 -211 -429 -428 -24 -85 -16 -248 17 -341
55 -155 160 -270 317 -347 l44 -21 1 -167 c0 -159 -1 -167 -20 -170 -272 -48
-417 -102 -594 -221 -163 -109 -277 -233 -368 -402 l-39 -72 -70 70 c-185 190
-381 290 -476 245 -83 -40 -108 -120 -104 -328 2 -81 6 -151 10 -156 5 -8 8
-25 22 -107 3 -16 10 -48 15 -70 6 -22 13 -47 14 -55 8 -35 85 -261 113 -331
104 -258 245 -474 345 -526 44 -22 116 -21 164 4 l39 21 29 -47 c66 -106 179
-225 304 -319 64 -47 72 -57 55 -63 -10 -4 -82 -26 -159 -49 -375 -111 -564
-211 -751 -395 -184 -180 -315 -393 -445 -718 -21 -53 -39 -100 -39 -102 0 -3
950 -5 2110 -5 1161 0 2110 1 2110 3 0 7 -63 176 -83 222 -38 90 -142 289
-182 350 -82 126 -191 247 -301 335 -57 46 -257 170 -274 170 -4 0 -33 11 -65
25 -70 31 -419 144 -447 145 -7 1 -26 7 -42 13 l-29 13 67 48 c130 92 272 250
351 387 l38 67 21 -41 c43 -81 166 -108 245 -53 130 90 280 357 392 699 140
427 150 770 25 852 -40 27 -98 30 -158 9 -47 -17 -154 -76 -168 -94 -3 -3 -21
-17 -40 -30 -19 -14 -86 -76 -149 -138 -62 -62 -115 -112 -116 -110 -2 2 -17
35 -35 73 -77 170 -241 360 -395 461 -144 93 -239 135 -420 183 l-100 27 -3
175 -2 175 50 23 c123 56 226 158 286 286 84 177 75 383 -23 554 -66 113 -202
221 -333 262 -91 29 -233 33 -325 9z m250 -242 c73 -19 176 -100 167 -131 -1
-5 2 -6 8 -2 18 11 63 -105 68 -177 6 -85 -10 -144 -60 -218 -110 -165 -344
-203 -501 -80 -45 35 -71 69 -99 128 -82 170 -12 373 156 459 81 41 160 48
261 21z"/>
</g>
</svg>
